<?xml version="1.0" encoding="UTF-8" standalone="no"?>
<svg
   xmlns:dc="http://purl.org/dc/elements/1.1/"
   xmlns:cc="http://creativecommons.org/ns#"
   xmlns:rdf="http://www.w3.org/1999/02/22-rdf-syntax-ns#"
   xmlns:svg="http://www.w3.org/2000/svg"
   xmlns="http://www.w3.org/2000/svg"
   xmlns:sodipodi="http://sodipodi.sourceforge.net/DTD/sodipodi-0.dtd"
   xmlns:inkscape="http://www.inkscape.org/namespaces/inkscape"
   aria-hidden="true"
   focusable="false"
   data-prefix="fab"
   data-icon="twitter"
   class="svg-inline--fa fa-twitter fa-w-16"
   role="img"
   viewBox="0 0 512 512"
   version="1.1"
   id="svg4"
   sodipodi:docname="twitterLogo.svg"
   inkscape:version="0.92.1 r15371">
  <metadata
     id="metadata10">
    <rdf:RDF>
      <cc:Work
         rdf:about="">
        <dc:format>image/svg+xml</dc:format>
        <dc:type
           rdf:resource="http://purl.org/dc/dcmitype/StillImage" />
        <dc:title></dc:title>
      </cc:Work>
    </rdf:RDF>
  </metadata>
  <defs
     id="defs8" />
  <sodipodi:namedview
     pagecolor="#ffffff"
     bordercolor="#666666"
     borderopacity="1"
     objecttolerance="10"
     gridtolerance="10"
     guidetolerance="10"
     inkscape:pageopacity="0"
     inkscape:pageshadow="2"
     inkscape:window-width="1920"
     inkscape:window-height="1005"
     id="namedview6"
     showgrid="false"
     inkscape:zoom="0.23046875"
     inkscape:cx="270.18119"
     inkscape:cy="313.73923"
     inkscape:window-x="-9"
     inkscape:window-y="-9"
     inkscape:window-maximized="1"
     inkscape:current-layer="svg4" />
  <path
     fill="currentColor"
     d="M459.37 151.716c.325 4.548.325 9.097.325 13.645 0 138.72-105.583 298.558-298.558 298.558-59.452 0-114.68-17.219-161.137-47.106 8.447.974 16.568 1.299 25.34 1.299 49.055 0 94.213-16.568 130.274-44.832-46.132-.975-84.792-31.188-98.112-72.772 6.498.974 12.995 1.624 19.818 1.624 9.421 0 18.843-1.3 27.614-3.573-48.081-9.747-84.143-51.98-84.143-102.985v-1.299c13.969 7.797 30.214 12.67 47.431 13.319-28.264-18.843-46.781-51.005-46.781-87.391 0-19.492 5.197-37.36 14.294-52.954 51.655 63.675 129.3 105.258 216.365 109.807-1.624-7.797-2.599-15.918-2.599-24.04 0-57.828 46.782-104.934 104.934-104.934 30.213 0 57.502 12.67 76.67 33.137 23.715-4.548 46.456-13.32 66.599-25.34-7.798 24.366-24.366 44.833-46.132 57.827 21.117-2.273 41.584-8.122 60.426-16.243-14.292 20.791-32.161 39.308-52.628 54.253z"
     id="path2" />
  <path
     style="opacity:1;fill:#96c648;fill-opacity:1;stroke:none;stroke-width:2.17290783;stroke-linecap:round;stroke-linejoin:bevel;stroke-miterlimit:4;stroke-dasharray:none;stroke-dashoffset:0;stroke-opacity:1;paint-order:markers stroke fill"
     d="M 130.60339,461.46191 C 96.123941,457.76944 58.022587,446.40161 27.552542,430.7159 L 8.0271186,420.66441 18.874576,420.15013 c 24.03914,-1.1397 53.003561,-5.63491 69.423729,-10.77441 20.432945,-6.39551 51.147035,-21.72915 61.855415,-30.88061 l 7.56831,-6.46793 -7.74182,-0.0882 c -9.96764,-0.11351 -28.39146,-5.60309 -42.09545,-12.54279 -14.306166,-7.24459 -35.587225,-29.1182 -42.761491,-43.95212 l -5.770884,-11.93221 13.388214,-0.5202 c 19.142622,-0.74378 32.084421,-2.73492 30.842021,-4.74515 -0.58896,-0.95297 -5.56851,-2.99195 -11.065658,-4.53105 -21.37472,-5.98454 -47.466724,-28.24786 -58.43996,-49.86461 -6.429664,-12.66612 -11.948188,-31.4112 -11.948188,-40.58507 v -7.25517 l 6.706143,3.46788 c 6.913712,3.57522 36.541826,10.52552 38.124034,8.94331 0.489416,-0.48942 -5.321342,-7.1181 -12.912794,-14.7304 C 23.045665,162.60572 13.950389,117.3596 31.023861,79.162557 L 35.473937,69.20678 45.757069,80.312656 C 97.464583,136.15725 166.0587,170.05724 241.95167,177.27425 l 10.46691,0.99535 -1.43553,-15.48056 c -5.20131,-56.09003 36.71888,-106.797097 93.56156,-113.17292 24.96045,-2.799718 56.53673,7.08011 76.03076,23.789094 4.96256,4.253573 10.96142,7.733769 13.33081,7.733769 6.61363,0 32.55986,-8.466701 46.99134,-15.334078 7.116,-3.386229 13.31449,-5.780465 13.77443,-5.320526 0.45993,0.459939 -1.92671,5.912709 -5.30365,12.117267 -6.40833,11.774225 -21.11551,28.319274 -32.25644,36.287344 l -6.50847,4.65491 6.52373,0.0687 c 6.00886,0.0633 37.61204,-7.91864 47.69718,-12.04677 8.54877,-3.499252 -21.75243,30.53856 -38.68002,43.44986 l -7.29862,5.56692 -1.35175,28.7358 c -2.02854,43.12319 -10.17008,74.96602 -29.65621,115.99016 -38.66561,81.40267 -108.99354,139.00735 -194.18346,159.05311 -31.94941,7.51792 -72.84164,10.33539 -103.05085,7.1002 z"
     id="path4487"
     inkscape:connector-curvature="0" />
  <path
     style="opacity:1;fill:#96c648;fill-opacity:1;stroke:none;stroke-width:2.17290783;stroke-linecap:round;stroke-linejoin:bevel;stroke-miterlimit:4;stroke-dasharray:none;stroke-dashoffset:0;stroke-opacity:1;paint-order:markers stroke fill"
     d=""
     id="path4489"
     inkscape:connector-curvature="0" />
  <path
     style="opacity:1;fill:#96c648;fill-opacity:1;stroke:none;stroke-width:2.17290783;stroke-linecap:round;stroke-linejoin:bevel;stroke-miterlimit:4;stroke-dasharray:none;stroke-dashoffset:0;stroke-opacity:1;paint-order:markers stroke fill"
     d=""
     id="path4491"
     inkscape:connector-curvature="0" />
  <path
     style="opacity:1;fill:#96c648;fill-opacity:1;stroke:none;stroke-width:2.17290783;stroke-linecap:round;stroke-linejoin:bevel;stroke-miterlimit:4;stroke-dasharray:none;stroke-dashoffset:0;stroke-opacity:1;paint-order:markers stroke fill"
     d=""
     id="path4493"
     inkscape:connector-curvature="0" />
  <path
     style="opacity:1;fill:#96c648;fill-opacity:1;stroke:none;stroke-width:2.17290783;stroke-linecap:round;stroke-linejoin:bevel;stroke-miterlimit:4;stroke-dasharray:none;stroke-dashoffset:0;stroke-opacity:1;paint-order:markers stroke fill"
     d="M 106.12089,456.61234 C 78.680316,450.63355 54.240002,442.43857 31.891525,431.72285 l -19.525423,-9.36212 13.016949,-1.51697 c 30.99743,-3.61238 46.314585,-6.05438 57.491525,-9.16576 18.336414,-5.10442 45.026284,-17.44466 61.690504,-28.52302 l 15.0615,-10.01285 -13.96922,-2.60886 C 108.6015,363.61283 81.300894,344.29006 65.933919,314.10679 l -4.546714,-8.93051 16.709786,-1.49237 c 18.776186,-1.67694 26.472499,-3.22413 26.472499,-5.32175 0,-0.78379 -5.07112,-3.22618 -11.269155,-5.42752 -36.88816,-13.10152 -63.570489,-45.84575 -69.81859,-85.68054 -1.341029,-8.54974 -1.108221,-9.31348 2.376822,-7.79738 7.960638,3.46311 34.395938,9.78018 38.50018,9.20013 3.546351,-0.50121 1.938315,-3.15806 -9.556194,-15.78905 -8.483301,-9.32207 -16.79099,-21.41915 -21.513658,-31.32671 -6.566473,-13.77564 -7.827332,-18.93675 -8.606233,-35.22814 -0.904131,-18.91067 1.16059,-32.117785 7.329116,-46.881149 l 3.128954,-7.488637 20.217619,19.241977 C 108.30609,141.57778 170.29079,170.80916 239.07797,177.82551 l 14.10169,1.43839 -0.70081,-19.94837 c -0.85706,-24.39531 4.09199,-42.87561 16.60245,-61.995449 14.11052,-21.565234 31.98548,-34.80087 57.48922,-42.568271 29.1361,-8.873669 60.74156,-2.862346 89.89711,17.098332 13.07139,8.949014 15.08324,9.665113 23.79792,8.470635 5.23569,-0.717633 19.22223,-5.113681 31.08117,-9.768997 11.85896,-4.655317 21.55811,-7.838661 21.55364,-7.074098 -0.036,6.184352 -21.68689,33.162012 -34.41161,42.878058 l -9.59405,7.32562 8.44756,-0.007 c 4.64617,-0.004 16.98994,-2.29202 27.43062,-5.08439 10.44068,-2.79236 18.98305,-4.42488 18.98305,-3.62782 0,1.9902 -29.84719,32.768 -38.3928,39.58986 -6.78705,5.41802 -6.96484,6.01627 -8.32538,28.01095 -2.04194,33.01082 -6.824,60.98029 -14.18005,82.93657 -34.39746,102.66956 -112.57451,175.2066 -214.62719,199.1431 -27.96016,6.55806 -96.01317,7.656 -122.10962,1.97007 z"
     id="path4495"
     inkscape:connector-curvature="0" />
  <path
     style="opacity:1;fill:#96c648;fill-opacity:1;stroke:none;stroke-width:2.17290783;stroke-linecap:round;stroke-linejoin:bevel;stroke-miterlimit:4;stroke-dasharray:none;stroke-dashoffset:0;stroke-opacity:1;paint-order:markers stroke fill"
     d="m 104.56949,456.17302 c -11.335592,-2.3754 -27.911334,-6.76734 -36.834982,-9.75985 -16.615725,-5.57201 -54.905381,-22.59597 -53.648649,-23.85269 0.384503,-0.38452 10.405701,-1.75577 22.26933,-3.04725 35.231712,-3.83533 56.770486,-9.85875 84.869601,-23.73417 14.10738,-6.96626 27.90428,-15.08042 30.65978,-18.03145 l 5.00999,-5.36552 -10.34722,-1.55166 c -14.41806,-2.16212 -36.14319,-10.36991 -46.565375,-17.5925 -11.885985,-8.23699 -27.2234,-25.6472 -33.49276,-38.01919 l -5.160478,-10.18372 17.823772,-1.57622 c 9.803075,-0.86693 19.776315,-2.3181 22.162751,-3.22482 3.96468,-1.50634 3.77752,-1.88364 -2.169487,-4.37357 C 75.695225,286.04208 67.556126,280.92242 54.096948,267.52382 45.01051,258.47828 37.367207,248.42784 34.028481,241.1351 28.620305,229.32208 20.721544,201.14512 22.35915,199.50752 c 0.48045,-0.48045 9.034087,1.49008 19.008081,4.37896 28.989971,8.39668 29.879372,7.45809 11.905312,-12.5638 -6.793456,-7.56745 -15.68151,-20.82787 -19.961691,-29.78159 -6.595071,-13.79626 -7.848123,-18.91236 -8.62819,-35.22814 -0.907105,-18.97289 1.159087,-32.114188 7.396388,-47.042151 l 3.196225,-7.64964 14.57931,14.159256 c 29.070193,28.232625 52.270635,45.069505 84.003045,60.962185 33.22025,16.63784 67.994,26.92193 104.67796,30.95778 l 13.55933,1.49175 v -20.59466 c 0,-24.93581 4.93431,-42.79024 16.97345,-61.417117 19.99796,-30.940742 53.62833,-48.04564 90.21817,-45.886272 21.02682,1.240908 36.49005,6.758491 56.95137,20.321364 17.9308,11.885498 22.11512,11.808809 54.29816,-0.99519 11.7082,-4.658105 21.65033,-8.146165 22.0936,-7.751244 2.2761,2.027805 -13.07233,23.303041 -26.0926,36.168277 -14.32871,14.158102 -14.61298,14.644072 -8.56611,14.644072 3.43993,0 15.1488,-2.31016 26.01969,-5.13369 10.87091,-2.82352 19.76528,-4.20878 19.76528,-3.07835 0,1.13044 -10.18285,12.10336 -22.62858,24.38427 l -22.62859,22.32893 -1.42028,21.42738 c -4.20953,63.50789 -19.60572,110.63807 -52.07559,159.41161 -44.47555,66.80749 -116.21085,112.9004 -193.94639,124.61863 -30.43349,4.58767 -80.91185,3.89222 -106.48701,-1.46712 z"
     id="path4497"
     inkscape:connector-curvature="0" />
  <path
     style="opacity:1;fill:#96c648;fill-opacity:1;stroke:none;stroke-width:2.17290783;stroke-linecap:round;stroke-linejoin:bevel;stroke-miterlimit:4;stroke-dasharray:none;stroke-dashoffset:0;stroke-opacity:1;paint-order:markers stroke fill"
     d="M 118.67119,459.39584 C 91.597848,455.15271 51.082756,441.81048 24.726804,428.45857 l -12.360702,-6.26194 10.847457,-1.33966 c 34.007194,-4.1999 57.659455,-8.71947 71.333639,-13.63072 19.643632,-7.05525 40.914472,-17.77616 53.412122,-26.92076 l 9.76271,-7.14345 -13.01695,-2.65127 C 107.90182,363.01473 81.710008,344.39142 65.733691,314.35932 l -4.616459,-8.67796 13.590536,-1.68971 c 31.917392,-3.96831 34.242502,-5.43323 17.615608,-11.09858 -22.752449,-7.75255 -48.78218,-31.06219 -58.618481,-52.49291 -5.282473,-11.50912 -12.924528,-39.31386 -11.262194,-40.97619 0.526404,-0.52641 6.772821,0.82651 13.880926,3.00648 17.195536,5.27366 29.195017,7.33617 29.195017,5.01813 0,-1.03786 -5.491896,-8.16006 -12.204216,-15.82712 -6.712318,-7.66706 -15.742827,-21.26214 -20.067797,-30.21129 -7.697626,-15.9278 -7.86358,-16.82061 -7.86358,-42.30509 0,-22.355985 0.684126,-27.516301 4.842555,-36.527045 l 4.842556,-10.493151 20.646051,19.060211 c 50.130077,46.279545 102.397737,72.940555 163.511547,83.404965 36.00715,6.16544 32.86471,7.67975 32.89491,-15.85175 0.043,-33.53654 8.96694,-56.52627 30.17357,-77.732886 19.78051,-19.780508 44.41819,-30.135001 71.76678,-30.161474 22.61013,-0.02189 39.85063,5.678254 61.83051,20.442711 16.59656,11.148349 23.06698,11.105365 53.15254,-0.35311 12.52881,-4.771761 23.14233,-8.367808 23.5856,-7.991216 2.11458,1.79647 -12.80219,22.913727 -25.05962,35.476263 -7.54182,7.729542 -13.71242,14.334752 -13.71242,14.678242 0,1.82012 11.99453,-0.0355 29.83051,-4.61491 11.03728,-2.83385 20.06779,-4.20762 20.06779,-3.05283 0,1.1548 -10.12514,12.15143 -22.50034,24.43696 l -22.50034,22.33733 -1.50109,21.43695 c -4.52076,64.56115 -19.48405,110.06838 -52.65028,160.1233 -17.09878,25.80567 -50.51967,60.11989 -74.50082,76.49219 -31.04963,21.19806 -67.4043,36.96825 -104.04204,45.13209 -16.00548,3.56644 -92.14904,6.43657 -107.38983,4.04792 z"
     id="path4499"
     inkscape:connector-curvature="0" />
  <path
     style="opacity:1;fill:#96c648;fill-opacity:1;stroke:none;stroke-width:2.17290783;stroke-linecap:round;stroke-linejoin:bevel;stroke-miterlimit:4;stroke-dasharray:none;stroke-dashoffset:0;stroke-opacity:1;paint-order:markers stroke fill"
     d="M 104.56949,456.52552 C 78.50025,450.91436 54.532606,442.76105 31.891525,431.8019 l -19.525423,-9.45102 10.847457,-1.46694 c 38.953514,-5.26779 63.924372,-10.74157 81.023151,-17.76087 20.19267,-8.28939 45.58543,-22.42031 50.13134,-27.8978 2.40754,-2.90091 2.03423,-3.37442 -2.66032,-3.37442 -7.05386,0 -32.7902,-7.93772 -43.64977,-13.46267 -12.029446,-6.12014 -28.835059,-22.38948 -38.544282,-37.31437 -4.58371,-7.04601 -8.334017,-13.52335 -8.334017,-14.39408 0,-0.87074 5.613559,-2.21233 12.474576,-2.98131 C 95.636118,301.23468 102.4,299.91771 102.4,298.10137 c 0,-0.97616 -4.53448,-3.31991 -10.076624,-5.2083 -23.665308,-8.06359 -48.907149,-31.05046 -59.242895,-53.95046 -5.890823,-13.05178 -12.588759,-37.5771 -10.757516,-39.38997 0.489827,-0.48492 9.677035,1.47033 20.416018,4.34498 10.738983,2.87466 20.257627,5.22996 21.152542,5.23401 3.437538,0.0155 1.157127,-3.7226 -10.583322,-17.34858 -6.682684,-7.75593 -15.699668,-21.42373 -20.037742,-30.37288 -7.728075,-15.94249 -7.88741,-16.7971 -7.88741,-42.30509 0,-22.332164 0.686417,-27.521065 4.827503,-36.493017 L 35.038056,72.15294 57.905035,92.801041 c 48.373155,43.679299 97.008635,69.012109 154.054285,80.242409 9.54576,1.87923 22.23729,3.69153 28.20339,4.02734 l 10.84746,0.61057 1.26201,-25.22994 c 1.16079,-23.20603 1.89668,-26.56634 9.17368,-41.88959 25.17176,-53.004589 86.17079,-74.640369 138.17448,-49.009184 6.56271,3.234579 15.72946,8.476607 20.37055,11.648949 11.97574,8.185847 23.337,7.578025 50.13792,-2.68236 11.93221,-4.568088 22.05759,-7.996593 22.50086,-7.6189 2.04581,1.743121 -12.299,22.161071 -25.11167,35.743162 -16.35104,17.332983 -16.14546,17.468053 15.08539,9.911333 11.6339,-2.81498 21.15254,-4.19381 21.15254,-3.06407 0,1.12974 -10.0659,12.15664 -22.36869,24.50422 l -22.36867,22.45013 -2.65397,31.23558 c -5.10166,60.04387 -19.58775,101.71056 -52.63813,151.40441 -16.37942,24.62777 -50.42857,59.2934 -74.15678,75.49944 -35.71517,24.39298 -76.9416,40.87265 -117.20569,46.85129 -31.5442,4.68387 -83.85659,4.2421 -107.79451,-0.91031 z"
     id="path4501"
     inkscape:connector-curvature="0" />
  <path
     style="opacity:1;fill:#96c648;fill-opacity:1;stroke:none;stroke-width:2.17290783;stroke-linecap:round;stroke-linejoin:bevel;stroke-miterlimit:4;stroke-dasharray:none;stroke-dashoffset:0;stroke-opacity:1;paint-order:markers stroke fill"
     d="M 103.15055,456.45128 C 78.411544,451.08942 49.879706,441.11314 28.637288,430.39737 l -16.271186,-8.20803 7.59322,-1.1702 c 4.176271,-0.64362 18.332203,-2.78268 31.457627,-4.75344 13.125424,-1.97079 30.966287,-5.93758 39.646362,-8.8151 18.309059,-6.06963 48.179869,-20.67812 58.719479,-28.71706 l 7.29619,-5.5651 -14.67251,-2.96536 c -31.42635,-6.35141 -55.71266,-22.72022 -72.892792,-49.12927 -4.58371,-7.04601 -8.334017,-13.52335 -8.334017,-14.39408 0,-0.87074 5.613559,-2.23542 12.474576,-3.0326 18.890012,-2.19485 26.576273,-3.72475 26.576273,-5.28983 0,-0.7796 -6.816681,-4.59333 -15.148177,-8.47498 -21.560339,-10.04497 -41.477449,-29.24437 -50.890719,-49.0569 -6.743344,-14.19301 -13.96629,-39.2751 -11.868649,-41.21456 0.489827,-0.45289 10.080109,1.50937 21.31174,4.36058 11.231632,2.8512 20.842694,4.76246 21.35792,4.24723 0.515226,-0.51522 -5.267098,-8.57316 -12.84961,-17.90653 C 32.15941,165.71417 25.82949,150.40494 24.696714,123.9319 c -0.757563,-17.70431 -0.103803,-23.70641 3.958111,-36.338981 2.676056,-8.322545 5.306899,-15.131902 5.846319,-15.131902 0.539418,0 10.911909,8.841244 23.049977,19.647208 26.575946,23.659345 52.193809,41.504305 78.475999,54.665025 31.24964,15.64817 74.85311,28.29409 104.13559,30.20152 l 10.84746,0.70659 1.26201,-25.22994 c 1.15025,-22.99497 1.93573,-26.64642 8.8673,-41.22034 11.10713,-23.353266 26.30749,-38.89738 49.05557,-50.164984 l 18.6046,-9.215249 25.10525,0.10908 c 28.28451,0.122896 36.99063,2.706096 61.6868,18.303138 18.76365,11.850315 24.47204,11.586051 62.67271,-2.901369 8.05423,-3.05453 14.64406,-4.60177 14.64406,-3.438311 0,4.166799 -10.93822,19.323374 -24.09728,33.390455 -7.36486,7.87304 -12.88992,14.81534 -12.27795,15.42732 0.61199,0.61198 11.48746,-1.22268 24.1677,-4.07702 12.68025,-2.85434 23.05499,-4.36093 23.05499,-3.34798 0,1.01295 -10.1197,12.34001 -22.48823,25.17126 l -22.48826,23.32953 -1.55481,22.77966 c -2.17452,31.85885 -6.69416,56.04157 -15.26643,81.68421 -33.77885,101.04445 -113.09314,173.74467 -215.19379,197.24862 -9.88059,2.27456 -29.59831,3.71052 -59.27966,4.31716 -38.50221,0.78691 -47.14147,0.33097 -64.3342,-3.39532 z"
     id="path4503"
     inkscape:connector-curvature="0" />
  <path
     style="opacity:1;fill:#96c648;fill-opacity:1;stroke:none;stroke-width:2.17290783;stroke-linecap:round;stroke-linejoin:bevel;stroke-miterlimit:4;stroke-dasharray:none;stroke-dashoffset:0;stroke-opacity:1;paint-order:markers stroke fill"
     d="M 116.50169,459.24443 C 93.359692,456.02493 52.491086,442.53696 27.552542,429.8883 l -15.18644,-7.70243 7.59322,-1.19307 c 37.40426,-5.877 62.099324,-10.59556 70.885869,-13.54439 23.015659,-7.72426 63.622609,-28.92692 63.622609,-33.22017 0,-0.83009 -6.05203,-2.75929 -13.44896,-4.28711 -30.26114,-6.25033 -54.60327,-22.88597 -71.505162,-48.86732 -4.58371,-7.04601 -8.334017,-13.52498 -8.334017,-14.39772 0,-0.87274 4.39322,-2.18581 9.762712,-2.9179 5.369491,-0.7321 14.155932,-1.93005 19.525424,-2.66214 5.369491,-0.7321 9.762713,-1.96673 9.762713,-2.74365 0,-0.77689 -6.816681,-4.58843 -15.148177,-8.47008 -20.647714,-9.61977 -41.12433,-29.00951 -50.565736,-47.88177 -6.602421,-13.19746 -14.306289,-40.34419 -12.080714,-42.56977 0.507523,-0.50752 9.920632,1.3667 20.918019,4.16493 11.360939,2.89073 19.995251,4.1522 19.995251,2.92128 0,-1.19153 -5.032212,-8.16699 -11.182694,-15.50102 -6.150481,-7.33404 -14.667694,-20.6453 -18.927141,-29.58058 -6.898516,-14.47142 -7.837598,-18.56519 -8.597248,-37.47827 -0.708521,-17.64013 -0.02963,-23.79238 4.012755,-36.364201 2.676056,-8.322545 5.385324,-15.131902 6.020594,-15.131902 0.635273,0 8.725172,6.835439 17.977555,15.189864 52.224996,47.156469 104.090776,74.470909 162.418236,85.535439 9.88768,1.87566 22.15761,3.41029 27.2665,3.41029 h 9.28892 l 0.79531,-24.40678 c 0.73961,-22.69755 1.33901,-25.54627 8.55906,-40.67797 11.2427,-23.562351 26.40725,-39.14824 48.96612,-50.326599 16.40483,-8.128914 20.36909,-9.1923 37.28345,-10.000985 24.76433,-1.183997 41.21862,3.095969 65.27219,16.978105 10.997,6.346742 21.38068,10.803143 25.15881,10.797498 3.53833,-0.0052 17.4164,-3.816707 30.84012,-8.469823 13.42373,-4.653117 24.40678,-7.558204 24.40678,-6.455751 0,3.869598 -10.64636,18.809642 -22.61983,31.742422 -6.65062,7.183463 -12.09203,14.041983 -12.09203,15.241163 0,1.29477 9.25201,0.23295 22.77966,-2.61437 12.52881,-2.63707 22.77966,-3.96304 22.77966,-2.94658 0,1.01645 -10.09499,12.32072 -22.4333,25.12058 l -22.4333,23.27248 -1.56292,22.69247 c -4.16228,60.43332 -20.56346,109.42105 -53.04166,158.42702 -15.48913,23.37137 -54.56161,62.63515 -77.34238,77.72108 -34.77423,23.02829 -75.71575,39.19187 -113.8983,44.9667 -19.03153,2.8784 -80.0502,3.88153 -96.54238,1.58716 z"
     id="path4505"
     inkscape:connector-curvature="0" />
  <path
     style="opacity:1;fill:#96c648;fill-opacity:1;stroke:none;stroke-width:2.17290783;stroke-linecap:round;stroke-linejoin:bevel;stroke-miterlimit:4;stroke-dasharray:none;stroke-dashoffset:0;stroke-opacity:1;paint-order:markers stroke fill"
     d="m 106.73898,457.42861 c -23.888709,-5.12692 -50.019843,-13.91878 -72.158893,-24.278 -11.646715,-5.4497 -20.793657,-10.29072 -20.326536,-10.75783 0.46712,-0.46712 12.925064,-2.73675 27.684319,-5.04359 32.91696,-5.14491 47.627568,-8.91648 67.10401,-17.20444 20.31924,-8.64662 46.28194,-24.01104 44.0123,-26.04598 -1.01234,-0.90765 -8.5375,-3.28696 -16.72257,-5.28734 -19.61008,-4.79258 -34.24104,-12.41982 -47.580588,-24.80412 -9.788961,-9.088 -27.571361,-33.20101 -27.571361,-37.38689 0,-0.90335 8.760554,-2.83965 19.4679,-4.30286 10.707345,-1.46324 19.041887,-3.34972 18.521205,-4.1922 -0.52068,-0.84247 -7.391341,-4.70447 -15.268133,-8.5822 C 63.980809,279.73667 43.560051,260.07735 34.516597,242.00055 27.906202,228.78715 20.211168,201.6555 22.44145,199.42522 c 0.510585,-0.51059 8.567745,1.0287 17.904801,3.42063 24.686622,6.32412 25.625745,5.47298 12.206321,-11.0628 -6.294242,-7.75593 -14.957141,-21.41238 -19.250888,-30.34766 -6.964796,-14.49374 -7.898039,-18.51727 -8.652633,-37.30446 -0.686558,-17.09332 0.03786,-23.96781 3.847269,-36.509474 2.581199,-8.498037 5.52396,-15.141536 6.539467,-14.763333 1.015508,0.378201 10.527071,8.269948 21.136805,17.537213 37.07042,32.379834 65.100778,50.614304 99.240608,64.558574 24.40763,9.9692 59.79027,19.14072 80.70931,20.92063 l 15.4852,1.31757 0.80478,-24.70453 c 0.75554,-23.19365 1.29562,-25.73488 8.83065,-41.55183 11.16928,-23.445672 25.90644,-38.453869 48.99235,-49.893381 16.9698,-8.408872 19.77713,-9.113737 39.188,-9.839367 25.29705,-0.945672 40.41392,3.144592 63.77743,17.256659 19.44704,11.746434 26.53549,11.891495 57.47027,1.176091 15.45745,-5.354262 22.23728,-6.858482 22.23728,-4.93372 0,3.833034 -11.49025,19.540248 -24.72042,33.792883 -13.34645,14.377925 -11.82874,15.196505 16.58483,8.944965 10.44068,-2.29715 18.98305,-3.26724 18.98305,-2.15574 0,1.11149 -10.09499,12.49352 -22.4333,25.29338 l -22.4333,23.27248 -1.56292,22.69247 c -5.35424,77.73991 -32.37509,141.3989 -82.71855,194.87851 -43.51362,46.22434 -101.30137,77.16348 -160.90539,86.14763 -27.11084,4.08643 -87.63965,4.0072 -106.96349,-0.14 z"
     id="path4507"
     inkscape:connector-curvature="0" />
  <path
     style="opacity:1;fill:#96c648;fill-opacity:1;stroke:none;stroke-width:2.17290783;stroke-linecap:round;stroke-linejoin:bevel;stroke-miterlimit:4;stroke-dasharray:none;stroke-dashoffset:0;stroke-opacity:1;paint-order:markers stroke fill"
     d="M 106.73898,457.5299 C 84.659482,453.04819 57.660251,443.92114 34.580087,433.13671 22.933372,427.69467 13.722789,422.92354 14.112126,422.5342 c 0.389337,-0.38933 14.929972,-3.11716 32.312524,-6.06186 17.382552,-2.94469 37.820253,-7.43324 45.417114,-9.97456 23.193546,-7.75878 60.456546,-27.60008 60.456546,-32.19111 0,-0.87322 -5.76453,-2.77834 -12.81006,-4.23357 -20.91319,-4.31954 -41.40039,-15.93162 -56.402075,-31.96845 -11.88737,-12.70765 -23.52605,-30.44218 -21.38407,-32.58416 0.831392,-0.83139 28.604232,-5.13998 33.647048,-5.21989 6.017707,-0.0954 1.990859,-3.80622 -11.176175,-10.29918 -20.24363,-9.98259 -40.796692,-30.11352 -50.148847,-49.11888 -7.055492,-14.33811 -14.072587,-38.96742 -11.760789,-41.27921 0.55018,-0.55019 9.183106,0.90503 19.184277,3.2338 10.001172,2.32877 18.701803,3.71627 19.334732,3.08334 0.63293,-0.63293 -1.988098,-5.29311 -5.824507,-10.35596 -23.916273,-31.56194 -30.659539,-48.31313 -30.659539,-76.16246 0,-17.52959 6.539173,-47.029479 10.392255,-46.882151 0.846972,0.03238 12.278932,9.399313 25.404355,20.815395 35.912628,31.235676 68.526475,51.494316 105.006555,65.226586 21.9755,8.27229 55.13382,15.94405 71.17896,16.46851 l 14.72974,0.48147 1.278,-23.8644 c 1.32211,-24.68807 4.24579,-35.14961 14.55137,-52.067799 29.65801,-48.688133 93.53008,-63.353683 143.62826,-32.978228 23.43315,14.207957 26.51487,14.292371 63.45762,1.738215 13.57766,-4.614057 18.98305,-5.656179 18.98305,-3.659794 0,3.656155 -11.23451,19.266525 -23.09822,32.094999 -9.58953,10.369347 -11.62809,14.805877 -6.73228,14.651497 1.49152,-0.047 11.25423,-1.87113 21.69491,-4.05356 10.44068,-2.18242 18.98305,-3.09047 18.98305,-2.01789 0,1.07257 -10.09152,12.41917 -22.42562,25.21465 l -22.42562,23.2645 -1.53405,23.72801 c -2.91497,45.08728 -12.55129,82.03658 -31.15012,119.44133 -43.36024,87.20321 -122.73938,147.03067 -213.16743,160.66269 -25.6822,3.87159 -86.95625,3.7931 -106.31411,-0.13618 z"
     id="path4509"
     inkscape:connector-curvature="0" />
  <path
     style="opacity:1;fill:#96c648;fill-opacity:1;stroke:none;stroke-width:2.17290783;stroke-linecap:round;stroke-linejoin:bevel;stroke-miterlimit:4;stroke-dasharray:none;stroke-dashoffset:0;stroke-opacity:1;paint-order:markers stroke fill"
     d="M 102.4,456.66245 C 92.257627,454.40213 75.396014,449.49209 64.929746,445.75121 45.04906,438.64546 12.782393,423.86393 14.15519,422.49114 c 0.437569,-0.43756 14.858098,-3.24454 32.045618,-6.23772 17.187521,-2.99316 36.315483,-6.89603 42.506579,-8.67302 13.412033,-3.84957 57.485143,-25.5629 61.357443,-30.22872 3.09355,-3.72751 4.06575,-3.1997 -16.2072,-8.79898 -20.34984,-5.62052 -36.83076,-15.54541 -51.042964,-30.73829 -11.789078,-12.60258 -23.231158,-30.17533 -21.060992,-32.34549 0.482187,-0.48219 8.815141,-1.99934 18.517677,-3.37146 9.702537,-1.37211 17.115175,-3.34553 16.472533,-4.38534 -0.642643,-1.03982 -6.909998,-4.78889 -13.927454,-8.3313 C 63.469447,279.61448 43.139838,259.40739 34.024131,240.88254 26.69585,225.99007 19.977764,201.8889 22.462293,199.40437 c 0.659603,-0.6596 9.342468,0.74567 19.295253,3.12283 9.952786,2.37716 18.488461,3.92962 18.968166,3.44991 0.479703,-0.4797 -2.394795,-5.4251 -6.387779,-10.98977 C 36.319937,169.87722 32.80875,163.75667 28.421268,149.8105 24.46982,137.25033 23.924002,131.55514 24.886612,112.92915 25.91632,93.004833 31.024269,72.434901 34.93248,72.474004 c 0.713915,0.0072 11.454815,8.789634 23.868668,19.516645 37.346245,32.271501 70.779712,53.200141 106.418462,66.615701 17.18605,6.46938 52.98722,15.02543 70.84684,16.93155 12.60516,1.34533 13.32656,1.16543 14.61446,-3.64441 0.74511,-2.78277 1.3681,-11.96036 1.38439,-20.39464 0.10733,-55.562765 45.63638,-100.732748 101.53351,-100.732748 20.924,0 35.34145,4.08617 58.17378,16.487522 21.92248,11.907154 29.12365,12.163002 59.01471,2.096709 16.04957,-5.404958 22.12117,-6.661384 22.12117,-4.577646 0,2.844213 -12.94626,20.745226 -26.34253,36.424253 -3.81847,4.46916 -6.36949,8.69895 -5.66892,9.39952 0.70057,0.70058 10.63044,-0.62758 22.06635,-2.95146 12.65543,-2.57169 20.79256,-3.36775 20.79256,-2.03416 0,1.20508 -9.87361,12.22468 -21.94137,24.48799 l -21.94135,22.29694 -2.88229,29.99872 c -1.58527,16.4993 -4.40776,37.16224 -6.2722,45.91765 -20.11911,94.47956 -91.2302,179.66801 -178.01364,213.25376 -37.72869,14.60124 -54.12371,17.46436 -105.22033,18.37496 -39.91434,0.71133 -49.30466,0.23832 -65.08475,-3.27841 z"
     id="path4511"
     inkscape:connector-curvature="0" />
  <path
     style="opacity:1;fill:#96c648;fill-opacity:1;stroke:none;stroke-width:2.17290783;stroke-linecap:round;stroke-linejoin:bevel;stroke-miterlimit:4;stroke-dasharray:none;stroke-dashoffset:0;stroke-opacity:1;paint-order:markers stroke fill"
     d="m 115.41695,459.50262 c -24.761781,-4.47739 -58.209055,-15.26515 -83.769158,-27.01809 -10.355623,-4.76166 -18.276844,-9.20914 -17.602715,-9.88329 0.67413,-0.67412 14.935643,-3.5459 31.692252,-6.38173 16.75661,-2.83583 38.069161,-7.70217 47.361228,-10.81411 17.375813,-5.81921 53.318713,-23.6587 57.277083,-28.42824 1.69208,-2.03882 -1.58482,-3.80759 -13.65428,-7.37011 -23.70491,-6.99693 -39.334285,-16.21469 -53.906694,-31.79264 -11.705874,-12.51363 -23.234762,-30.17173 -21.095611,-32.31087 0.463148,-0.46314 8.341424,-2.00797 17.507278,-3.43296 9.165857,-1.42498 16.665192,-3.33889 16.665192,-4.25311 0,-0.91422 -6.755933,-5.21238 -15.013182,-9.55143 C 61.568903,278.1192 41.643058,257.62818 32.88386,238.9102 26.387037,225.02681 20.211495,201.65517 22.448727,199.41794 c 0.652143,-0.65214 8.901185,0.65742 18.331205,2.91013 9.430021,2.25272 17.926578,3.64264 18.881239,3.08872 0.954661,-0.55392 -0.997228,-4.58033 -4.337532,-8.94756 -26.742535,-34.96413 -32.023191,-49.23238 -30.518792,-82.46126 0.973066,-21.4929 5.878924,-41.546953 10.163705,-41.546953 0.836634,0 11.713681,8.848089 24.171216,19.662418 C 117.16111,142.4915 170.01244,167.11095 238.23204,175.54901 l 11.08627,1.37126 1.3883,-6.94149 c 0.76358,-3.81782 1.38831,-12.98803 1.38831,-20.37824 0,-53.724624 46.44766,-98.834438 101.76561,-98.834438 20.47222,0 34.76704,4.036075 58.44266,16.501004 22.28193,11.731159 27.76118,11.936248 57.88906,2.166775 16.13149,-5.230909 22.71622,-6.557827 22.71622,-4.577646 0,2.818047 -13.72656,21.839395 -25.84064,35.808175 -8.18588,9.43919 -8.34232,11.5459 -0.73563,9.90599 24.49033,-5.27979 37.42373,-7.00792 37.42373,-5.00046 0,1.22758 -9.83168,12.22296 -21.84817,24.43419 l -21.84816,22.20223 -2.11515,23.58496 c -3.03429,33.83389 -7.63142,58.72886 -15.02026,81.33955 -27.27057,83.4512 -92.8287,154.48446 -170.21911,184.43503 -37.93802,14.68225 -54.07035,17.47735 -105.22033,18.23056 -25.65424,0.37777 -49.08475,0.24554 -52.0678,-0.29384 z"
     id="path4513"
     inkscape:connector-curvature="0" />
  <path
     style="opacity:1;fill:#96c648;fill-opacity:1;stroke:none;stroke-width:2.17290783;stroke-linecap:round;stroke-linejoin:bevel;stroke-miterlimit:4;stroke-dasharray:none;stroke-dashoffset:0;stroke-opacity:1;paint-order:markers stroke fill"
     d=""
     id="path4515"
     inkscape:connector-curvature="0" />
  <path
     style="opacity:1;fill:#96c648;fill-opacity:1;stroke:none;stroke-width:2.17290783;stroke-linecap:round;stroke-linejoin:bevel;stroke-miterlimit:4;stroke-dasharray:none;stroke-dashoffset:0;stroke-opacity:1;paint-order:markers stroke fill"
     d=""
     id="path4517"
     inkscape:connector-curvature="0" />
</svg>
