<svg id="Layer_1" enable-background="new 0 0 512.002 512.002" height="512" viewBox="0 0 512.002 512.002" width="512" xmlns="http://www.w3.org/2000/svg"><g id="XMLID_178_"><g id="XMLID_792_"><path id="XMLID_793_" d="m407.07 326.654c-3.906-3.904-10.236-3.904-14.143 0l-19.203 19.203-6.654-6.654c-3.906-3.904-10.236-3.904-14.143 0-3.905 3.905-3.905 10.237 0 14.143l13.726 13.726c1.953 1.952 4.512 2.929 7.071 2.929s5.118-.977 7.071-2.929l26.274-26.274c3.907-3.906 3.907-10.238.001-14.144z"/><path id="XMLID_796_" d="m399.999 398h-40c-5.522 0-10 4.478-10 10v40c0 5.522 4.478 10 10 10h40c5.522 0 10-4.478 10-10v-40c0-5.522-4.478-10-10-10zm-10 40h-20v-20h20z"/><path id="XMLID_797_" d="m449.994 418h12c5.522 0 10-4.478 10-10s-4.478-10-10-10h-12c-5.522 0-10 4.478-10 10s4.478 10 10 10z"/><path id="XMLID_798_" d="m449.994 458h12c5.522 0 10-4.478 10-10s-4.478-10-10-10h-12c-5.522 0-10 4.478-10 10s4.478 10 10 10z"/><path id="XMLID_799_" d="m449.994 338h12c5.522 0 10-4.478 10-10s-4.478-10-10-10h-12c-5.522 0-10 4.478-10 10s4.478 10 10 10z"/><path id="XMLID_800_" d="m449.994 378h12c5.522 0 10-4.478 10-10s-4.478-10-10-10h-12c-5.522 0-10 4.478-10 10s4.478 10 10 10z"/><path id="XMLID_801_" d="m320.001 396c2.63 0 5.2-1.07 7.069-2.931 1.86-1.859 2.931-4.439 2.931-7.069s-1.07-5.21-2.931-7.07c-1.859-1.86-4.439-2.93-7.069-2.93-2.641 0-5.21 1.069-7.07 2.93s-2.93 4.44-2.93 7.07 1.069 5.21 2.93 7.069c1.86 1.861 4.44 2.931 7.07 2.931z"/><path id="XMLID_804_" d="m477.994 260h-19.605c-4.91-11.376-16.234-19.361-29.392-19.361h-36.001c-13.158 0-24.482 7.985-29.393 19.361h-19.604c-14.44 0-26.798 9.052-31.718 21.776h-39.336c-7.346 0-13.322-5.976-13.322-13.321v-13.637c11.734-6.533 21.866-15.609 29.638-26.485h21.77c19.277 0 34.96-15.683 34.96-34.96v-21.326c2.531-4.052 4-8.832 4-13.951v-25.175c0-14.564-11.849-26.413-26.412-26.413h-17.588v-16.508c0-49.626-40.374-90-90-90s-90 40.374-90 90v86.127c0 33.804 18.737 63.31 46.367 78.691v13.637c0 7.346-5.976 13.321-13.321 13.321h-66.773c-50.87 0-92.256 41.387-92.256 92.257 0 17.624 4.919 34.549 14.276 49.292-4.269 11.239-6.429 23.044-6.429 35.169 0 16.941 4.341 33.671 12.553 48.381 1.831 3.279 5.233 5.127 8.74 5.127 1.65 0 3.323-.409 4.866-1.271 4.822-2.692 6.549-8.784 3.856-13.606-6.553-11.736-10.016-25.095-10.016-38.631 0-11.198 2.306-22.052 6.854-32.259 1.451-3.258 1.058-7.042-1.032-9.932-8.943-12.361-13.67-26.979-13.67-42.271 0-39.843 32.414-72.257 72.256-72.257h9.717v54.98c0 19.189-4.336 38.5-12.54 55.846-.632 1.337-.96 2.797-.96 4.275v85.103c0 5.522 4.478 10 10 10s10-4.478 10-10v-82.898c8.838-19.462 13.5-40.958 13.5-62.325v-54.98h20v25.64c0 40.809 33.2 74.009 74.009 74.009 40.81 0 74.01-33.2 74.01-74.009v-25.64h20v45.082c0 5.522 4.478 10 10 10s10-4.478 10-10v-52.858c0-7.72 6.28-14 14-14h17.861c3.335 14.106 16.025 24.639 31.136 24.639h36.001c15.111 0 27.8-10.532 31.135-24.639h17.862c7.72 0 14 6.28 14 14v184c0 7.72-6.28 14-14 14h-133.994c-7.72 0-14-6.28-14-14v-46.998c0-5.522-4.478-10-10-10s-10 4.478-10 10v46.998c0 18.748 15.252 34 34 34h133.995c18.748 0 34-15.252 34-34v-184c0-18.748-15.252-34-34-34zm-166.965-51.667h-11.003c2.889-7.512 4.797-15.506 5.569-23.825h17.981c.813 0 1.617-.042 2.412-.115v8.98c.001 8.249-6.71 14.96-14.959 14.96zm18.96-75.412v25.175c0 3.535-2.877 6.412-6.412 6.412h-17.588v-38h17.588c3.535 0 6.412 2.877 6.412 6.413zm-114-112.921c38.598 0 70 31.402 70 70v11.319c-12.035-4.159-20.707-15.596-20.707-29.026 0-3.091-1.43-6.008-3.872-7.902-2.443-1.894-5.626-2.55-8.617-1.783-24.078 6.189-49.529 6.189-73.607 0-2.987-.766-6.174-.111-8.617 1.783-2.442 1.895-3.872 4.812-3.872 7.902 0 13.431-8.672 24.868-20.707 29.026v-11.319c-.001-38.598 31.402-70 69.999-70zm42.614 86.508h-85.228c5.646-6.164 9.795-13.721 11.856-22.091 20.299 3.773 41.217 3.773 61.516 0 2.061 8.37 6.21 15.927 11.856 22.091zm-112.614 69.619v-49.619h140v49.619c0 11.609-2.857 22.558-7.88 32.206h-56.62c-5.522 0-10 4.478-10 10s4.478 10 10 10h41.065c-12.382 11.056-28.699 17.794-46.565 17.794-38.597 0-70-31.402-70-70zm70 205.298c-29.78 0-54.009-24.229-54.009-54.009v-25.777c16.998-1.497 30.376-15.804 30.376-33.184v-5.483c7.535 2.052 15.457 3.155 23.633 3.155s16.098-1.103 23.633-3.155v5.483c0 17.38 13.378 31.687 30.377 33.184v25.777c0 29.78-24.228 54.009-54.01 54.009zm213.008-96.786h-36.001c-6.617 0-12-5.383-12-12s5.383-12 12-12h36.001c6.616 0 11.999 5.383 11.999 12s-5.383 12-11.999 12z"/></g></g></svg>